<?xml version="1.0" standalone="no"?>
<!DOCTYPE svg PUBLIC "-//W3C//DTD SVG 1.1//EN" "http://www.w3.org/Graphics/SVG/1.1/DTD/svg11.dtd"><svg t="1646705962412"
  class="icon" viewBox="0 0 1024 1024" version="1.1" xmlns="http://www.w3.org/2000/svg" p-id="1913"
  xmlns:xlink="http://www.w3.org/1999/xlink" width="16px" height="20">
  <defs>
    <style type="text/css"></style>
  </defs>
  <path
    d="M904.664 0H118.04C52.829 0 0 52.828 0 117.939v786.624c0 65.211 52.828 118.039 118.039 118.039h786.624c65.211 0 118.039-52.828 118.039-118.039V117.94C1022.603 52.828 969.775 0 904.664 0zM216.006 337.638L468.06 211.611c11.984-5.992 27.562-8.888 43.24-8.888 15.68 0 31.358 2.996 43.242 8.888l252.255 126.027c23.767 11.984 23.767 31.358 0 43.241L554.643 506.907c-11.984 5.992-27.563 8.888-43.241 8.888-15.779 0-31.357-2.996-43.341-8.888L216.006 380.879c-23.768-11.883-23.768-31.257 0-43.24zM812.39 684.764l-246.962 123.53c-15.38 7.69-34.653 11.585-54.026 11.585-19.274 0-38.647-3.895-54.026-11.584L210.313 684.764c-11.983-5.992-16.777-20.472-10.785-32.456s20.472-16.777 32.456-10.785l246.962 123.531c16.977 8.488 47.935 8.488 64.911 0L790.82 641.523c11.983-5.992 26.464-1.099 32.455 10.785 5.892 11.984 1.099 26.564-10.885 32.456z m0-149.895L565.428 658.3c-16.877 7.89-35.352 11.884-54.026 11.584-19.274 0-38.647-3.895-54.026-11.584L210.214 534.869c-11.984-5.992-16.778-20.472-10.786-32.556 5.992-11.983 20.472-16.777 32.556-10.785l246.962 123.531c16.977 8.488 47.935 8.488 64.911 0L790.82 491.628c11.983-5.992 26.464-1.099 32.455 10.785 5.892 11.984 1.099 26.464-10.885 32.456z"
    p-id="1914" fill="#646cff"></path>
</svg>