<?xml version="1.0" standalone="no"?>
<!DOCTYPE svg PUBLIC "-//W3C//DTD SVG 1.1//EN" "http://www.w3.org/Graphics/SVG/1.1/DTD/svg11.dtd"><svg t="1649828024859"
  class="icon" viewBox="0 0 1024 1024" version="1.1" xmlns="http://www.w3.org/2000/svg" p-id="18313"
  xmlns:xlink="http://www.w3.org/1999/xlink" width="30" height="30">
  <defs>
    <style type="text/css">
      @font-face {
        font-family: feedback-iconfont;
        src: url("//at.alicdn.com/t/font_1031158_u69w8yhxdu.woff2?t=1630033759944") format("woff2"), url("//at.alicdn.com/t/font_1031158_u69w8yhxdu.woff?t=1630033759944") format("woff"), url("//at.alicdn.com/t/font_1031158_u69w8yhxdu.ttf?t=1630033759944") format("truetype");
      }
    </style>
  </defs>
  <path
    d="M296 951.744c0 31.168 94.912 56.448 212 56.448 117.12 0 212-25.28 212-56.448s-94.912-56.448-212-56.448c-117.12 0-212 25.28-212 56.448z"
    fill="#000000" opacity=".4" p-id="18314"></path>
  <path
    d="M398.24 951.744c0 10.08 20.928 19.424 54.88 24.448 33.952 5.056 75.808 5.056 109.76 0 33.952-5.024 54.88-14.368 54.88-24.448 0-15.584-49.152-28.224-109.76-28.224-60.608 0-109.76 12.64-109.76 28.224z"
    fill="#000000" opacity=".4" p-id="18315"></path>
  <path
    d="M508 952.384a24.096 24.096 0 0 1-24.448-24.48v-307.328c0-13.824 10.656-24.48 24.448-24.48s24.448 10.656 24.448 24.48v307.328a24.096 24.096 0 0 1-24.448 24.48z"
    fill="#d81e06" p-id="18316" data-spm-anchor-id="a313x.7781069.0.i20" class="selected"></path>
  <path
    d="M176.8 332.032a330.88 330.88 0 0 0 331.2 331.2 330.88 330.88 0 0 0 331.2-331.2A330.88 330.88 0 0 0 508 0.832a330.88 330.88 0 0 0-331.2 331.2z"
    fill="#d81e06" p-id="18317" data-spm-anchor-id="a313x.7781069.0.i19" class="selected"></path>
  <path
    d="M659.808 194.048a280.192 280.192 0 0 1-60.864 89.696 307.296 307.296 0 0 0 86.56 47.68c-8.16 6.88-18.176 20.064-23.2 28.832a306.56 306.56 0 0 1-87.808-54.56 343.36 343.36 0 0 1-92.832 54.56c-3.776-8.16-14.432-21.952-21.952-28.224 32-11.296 63.36-28.224 90.944-49.568a393.856 393.856 0 0 1-34.496-43.904 304.96 304.96 0 0 1-35.136 34.496 97.12 97.12 0 0 0-19.456-20.064 798.112 798.112 0 0 1-70.848 96.608l70.24-10.048c-0.64 9.408 0.64 22.592 1.28 30.112-94.72 15.04-107.904 18.176-117.312 23.2-1.28-6.88-6.912-23.2-10.688-31.36 8.8-1.888 17.6-10.016 28.864-23.84 6.272-6.88 19.456-23.2 34.496-43.904-40.128 4.384-49.536 6.912-55.2 8.8-1.888-6.912-6.88-23.84-11.296-32.64 6.912-1.856 13.824-10.656 21.952-23.2 8.16-11.904 34.528-58.944 49.568-102.88l33.856 13.824a719.072 719.072 0 0 1-58.944 109.12l40.768-3.136c8.16-12.544 16.32-26.336 22.592-40.128l26.976 16.96c33.216-28.896 55.808-65.28 68.352-95.36l36.384 6.272c-5.024 10.016-10.048 21.312-15.68 31.36h76.512l6.272-1.28 20.096 12.576zM332.384 436.16c34.496-5.024 85.92-15.68 136.096-24.48l2.528 30.72c-46.432 10.048-95.36 20.096-132.992 27.616l-5.632-33.856z m175.616-30.112c50.176 12.544 111.04 36.992 145.536 55.808l-20.096 27.616c-33.856-20.064-95.36-44.544-145.504-58.336l20.064-25.088z m41.408-64c27.584 10.048 61.44 26.976 79.68 40.16l-20.096 25.088c-18.208-13.792-52.064-32-79.68-42.656l20.096-22.56z m25.088-80.256c15.04-14.432 28.224-31.36 38.88-48.96l-76.512 0.64c9.408 16.96 22.56 33.28 37.632 48.32z"
    fill="#FFFFFF" p-id="18318"></path>
</svg>