<?xml version="1.0" standalone="no"?>
<!DOCTYPE svg PUBLIC "-//W3C//DTD SVG 1.1//EN" "http://www.w3.org/Graphics/SVG/1.1/DTD/svg11.dtd"><svg t="1649828006160"
  class="icon" viewBox="0 0 1024 1024" version="1.1" xmlns="http://www.w3.org/2000/svg" p-id="17440"
  xmlns:xlink="http://www.w3.org/1999/xlink" width="30" height="30">
  <defs>
    <style type="text/css">
      @font-face {
        font-family: feedback-iconfont;
        src: url("//at.alicdn.com/t/font_1031158_u69w8yhxdu.woff2?t=1630033759944") format("woff2"), url("//at.alicdn.com/t/font_1031158_u69w8yhxdu.woff?t=1630033759944") format("woff"), url("//at.alicdn.com/t/font_1031158_u69w8yhxdu.ttf?t=1630033759944") format("truetype");
      }
    </style>
  </defs>
  <path d="M295.424 966.656a215.552 57.344 0 1 0 431.104 0 215.552 57.344 0 1 0-431.104 0Z" opacity=".4" p-id="17441">
  </path>
  <path d="M399.36 966.656a111.616 28.672 0 1 0 223.232 0 111.616 28.672 0 1 0-223.232 0Z" opacity=".4" p-id="17442">
  </path>
  <path
    d="M512 967.168c-13.824 0-25.088-10.752-25.088-25.088v-312.32c0-13.824 10.752-25.088 25.088-25.088s25.088 10.752 25.088 25.088v312.32c0 14.336-11.264 25.088-25.088 25.088z"
    fill="#106848" p-id="17443"></path>
  <path
    d="M175.104 336.896c0 186.368 150.528 336.896 336.896 336.896s336.896-150.528 336.896-336.896S698.368 0 512 0 175.104 150.528 175.104 336.896z"
    fill="#07AA74" p-id="17444"></path>
  <path
    d="M451.584 448c20.992 7.168 47.104 8.704 79.872 8.704 23.04 0.512 132.608 0.512 160.256-0.512-5.12 8.192-11.264 24.064-13.824 34.816h-145.92c-76.8 0.512-122.368-10.24-151.552-57.856-4.608 28.16-10.752 52.224-20.48 72.192-6.144-4.608-21.504-12.288-30.208-15.872 20.48-38.4 25.088-99.328 26.112-166.4l33.28 2.56c-0.512 17.408-1.024 34.304-2.56 50.176C394.24 399.872 404.48 417.28 417.792 430.08V295.936H340.48v-31.232h70.144v-42.496H350.208v-31.232h60.416v-39.424h33.792v39.424h58.88v31.232H444.416v42.496h68.608v31.232h-61.44v50.176h57.856v31.232H451.584v70.656z m177.152-248.832h-104.448v-31.744h138.24v132.096h-100.864v75.264c0 12.288 2.56 14.848 18.432 14.848h52.224c14.848 0 16.384-7.168 18.432-52.224 7.68 6.144 21.504 11.264 31.232 13.824-4.608 55.296-13.824 70.144-47.104 70.144h-59.392c-37.376 0-49.152-9.728-49.152-46.08v-107.52h100.864V199.168h1.536z"
    fill="#FFFFFF" p-id="17445"></path>
</svg>